<svg width="21.27" height="21.27" viewBox="0 0 30 23" fill="none" xmlns="http://www.w3.org/2000/svg">
<path fill-rule="evenodd" clip-rule="evenodd" d="M10.6356 0.73938C10.6356 0.73938 11.7841 6.54365 13.7385 8.27144C13.9528 8.46116 14.2109 8.64664 14.5006 8.8265C14.792 8.64647 15.0517 8.46098 15.2672 8.27144C17.2194 6.55404 18.37 0.73938 18.37 0.73938C18.37 0.73938 19.5185 6.54365 21.4728 8.27144C23.4251 9.99922 29.0035 11.374 29.0035 11.374C29.0035 11.374 23.4272 12.7591 21.4728 14.4765C19.5185 16.1939 18.37 22.0085 18.37 22.0085C18.37 22.0085 17.2215 16.2043 15.2672 14.4765C15.0527 14.2869 14.7946 14.1015 14.505 13.9218C14.2136 14.1017 13.954 14.2871 13.7385 14.4765C11.7841 16.1939 10.6356 22.0085 10.6356 22.0085C10.6356 22.0085 9.48712 16.2043 7.53279 14.4765C5.57846 12.7487 0 11.374 0 11.374C0 11.374 5.58054 9.98884 7.53279 8.27144C9.48504 6.55404 10.6356 0.73938 10.6356 0.73938Z" fill="#1D1D1C"/>
</svg>
