<svg width="21" height="15" viewBox="0 0 21 15" fill="none" xmlns="http://www.w3.org/2000/svg">
<path d="M1.75002 6.04169H19.25C19.6368 6.04169 20.0077 6.19533 20.2812 6.46882C20.5547 6.74231 20.7084 7.11325 20.7084 7.50002C20.7084 7.88679 20.5547 8.25773 20.2812 8.53122C20.0077 8.80471 19.6368 8.95835 19.25 8.95835H1.75002C1.36325 8.95835 0.992314 8.80471 0.718823 8.53122C0.445333 8.25773 0.291687 7.88679 0.291687 7.50002C0.291687 7.11325 0.445333 6.74231 0.718823 6.46882C0.992314 6.19533 1.36325 6.04169 1.75002 6.04169Z" fill="black"/>
<path d="M19.25 12H1.75002C1.36325 12 0.992314 12.1536 0.718823 12.4271C0.445333 12.7006 0.291687 13.0716 0.291687 13.4583C0.291687 13.8451 0.445333 14.216 0.718823 14.4895C0.992314 14.763 1.36325 14.9167 1.75002 14.9167H19.25C19.6368 14.9167 20.0077 14.763 20.2812 14.4895C20.5547 14.216 20.7084 13.8451 20.7084 13.4583C20.7084 13.0716 20.5547 12.7006 20.2812 12.4271C20.0077 12.1536 19.6368 12 19.25 12Z" fill="black"/>
<path d="M19.25 0H1.75002C1.36325 0 0.992314 0.153646 0.718823 0.427136C0.445333 0.700627 0.291687 1.07156 0.291687 1.45833C0.291687 1.84511 0.445333 2.21604 0.718823 2.48953C0.992314 2.76302 1.36325 2.91667 1.75002 2.91667H19.25C19.6368 2.91667 20.0077 2.76302 20.2812 2.48953C20.5547 2.21604 20.7084 1.84511 20.7084 1.45833C20.7084 1.07156 20.5547 0.700627 20.2812 0.427136C20.0077 0.153646 19.6368 0 19.25 0Z" fill="black"/>
</svg>
